<svg width="128" height="97" viewBox="0 0 128 97" fill="none" xmlns="http://www.w3.org/2000/svg">
    <path d="M107.7 8.07C99.3468 4.24568 90.5284 1.53258 81.47 0C80.2305 2.21588 79.1089 4.49573 78.11 6.83C68.4612 5.37602 58.6489 5.37602 49 6.83C48.0006 4.49597 46.8791 2.21615 45.64 0C36.5759 1.54552 27.7517 4.26506 19.39 8.09C2.79003 32.65 -1.70997 56.6 0.540026 80.21C10.2614 87.3926 21.1424 92.8551 32.71 96.36C35.3147 92.8568 37.6195 89.1403 39.6 85.25C35.8384 83.8451 32.2077 82.1117 28.75 80.07C29.66 79.41 30.55 78.73 31.41 78.07C41.471 82.8014 52.452 85.2546 63.57 85.2546C74.688 85.2546 85.6691 82.8014 95.73 78.07C96.6 78.78 97.49 79.46 98.39 80.07C94.9257 82.115 91.2884 83.8517 87.52 85.26C89.4981 89.1485 91.8031 92.8619 94.41 96.36C105.988 92.8691 116.877 87.4092 126.6 80.22V80.22C129.24 52.84 122.09 29.11 107.7 8.07ZM42.45 65.69C36.18 65.69 31 60 31 53C31 46 36 40.26 42.43 40.26C48.86 40.26 54 46 53.89 53C53.78 60 48.84 65.69 42.45 65.69ZM84.69 65.69C78.41 65.69 73.25 60 73.25 53C73.25 46 78.25 40.26 84.69 40.26C91.13 40.26 96.23 46 96.12 53C96.01 60 91.08 65.69 84.69 65.69Z" fill="#828282"/>
</svg>
